<svg width="109" height="168" viewBox="0 0 109 168" fill="none" xmlns="http://www.w3.org/2000/svg">
<g filter="url(#filter0_i_835_3494)">
<path fill-rule="evenodd" clip-rule="evenodd" d="M58.88 15.6971C58.2485 15.529 57.5761 15.6181 57.0102 15.9449C56.4443 16.2717 56.0311 16.8096 55.8612 17.4406L43.8629 62.2246C43.6949 62.8568 43.7847 63.5298 44.1125 64.0958C44.4404 64.6618 44.9795 65.0746 45.6114 65.2434L76.8954 73.6263C77.5276 73.7943 78.2006 73.7045 78.7667 73.3766C79.3327 73.0488 79.7454 72.5097 79.9143 71.8777L91.9229 27.0989C92.0068 26.7855 92.0282 26.4586 91.9857 26.137C91.9432 25.8154 91.8378 25.5053 91.6754 25.2244C91.513 24.9436 91.2968 24.6975 91.0393 24.5002C90.7817 24.303 90.4878 24.1584 90.1743 24.0749L58.88 15.6971ZM37.6554 60.5583L45.8634 29.9326L21.8309 36.3663C21.5174 36.4499 21.2235 36.5944 20.9659 36.7917C20.7083 36.9889 20.4922 37.235 20.3298 37.5158C20.1674 37.7967 20.0619 38.1068 20.0195 38.4284C19.977 38.7501 19.9984 39.0769 20.0823 39.3903L32.0909 84.1691C32.2597 84.8011 32.6725 85.3402 33.2385 85.6681C33.8045 85.9959 34.4775 86.0857 35.1097 85.9177L66.3989 77.5349L66.5172 77.4989L43.94 71.456C42.8109 71.1535 41.7525 70.6314 40.8252 69.9197C39.898 69.2079 39.1201 68.3204 38.5359 67.3079C37.9518 66.2954 37.573 65.1777 37.421 64.0186C37.269 62.8596 37.347 61.682 37.6503 60.5531L37.6554 60.5583Z" fill="#D6A067"/>
</g>
<g filter="url(#filter1_i_835_3494)">
<path d="M9.68 127.4C9.68 129.344 10.112 131.06 10.976 132.548C11.864 134.036 13.016 135.2 14.432 136.04C15.848 136.88 17.384 137.3 19.04 137.3C20.24 137.3 21.332 137.144 22.316 136.832C23.324 136.52 24.236 136.088 25.052 135.536C25.868 134.96 26.564 134.3 27.14 133.556V137.588C26.084 138.524 24.932 139.22 23.684 139.676C22.436 140.132 20.888 140.36 19.04 140.36C17.288 140.36 15.644 140.048 14.108 139.424C12.596 138.776 11.264 137.876 10.112 136.724C8.96 135.548 8.06 134.168 7.412 132.584C6.764 131 6.44 129.272 6.44 127.4C6.44 125.528 6.764 123.8 7.412 122.216C8.06 120.632 8.96 119.264 10.112 118.112C11.264 116.936 12.596 116.036 14.108 115.412C15.644 114.764 17.288 114.44 19.04 114.44C20.888 114.44 22.436 114.668 23.684 115.124C24.932 115.58 26.084 116.276 27.14 117.212V121.244C26.564 120.5 25.868 119.852 25.052 119.3C24.236 118.724 23.324 118.28 22.316 117.968C21.332 117.656 20.24 117.5 19.04 117.5C17.384 117.5 15.848 117.92 14.432 118.76C13.016 119.6 11.864 120.764 10.976 122.252C10.112 123.716 9.68 125.432 9.68 127.4ZM33.6405 134.888C33.6405 135.512 33.7845 136.052 34.0725 136.508C34.3845 136.964 34.8045 137.312 35.3325 137.552C35.8845 137.768 36.5085 137.876 37.2045 137.876C38.0925 137.876 38.8845 137.696 39.5805 137.336C40.3005 136.976 40.8645 136.472 41.2725 135.824C41.7045 135.152 41.9205 134.384 41.9205 133.52L42.4965 135.68C42.4965 136.736 42.1725 137.612 41.5245 138.308C40.9005 139.004 40.1205 139.52 39.1845 139.856C38.2725 140.192 37.3605 140.36 36.4485 140.36C35.4405 140.36 34.4925 140.156 33.6045 139.748C32.7405 139.316 32.0445 138.704 31.5165 137.912C30.9885 137.12 30.7245 136.16 30.7245 135.032C30.7245 133.424 31.2885 132.14 32.4165 131.18C33.5685 130.196 35.1645 129.704 37.2045 129.704C38.4045 129.704 39.4005 129.848 40.1925 130.136C41.0085 130.4 41.6565 130.712 42.1365 131.072C42.6165 131.408 42.9405 131.684 43.1085 131.9V133.592C42.2685 133.016 41.4045 132.608 40.5165 132.368C39.6285 132.104 38.6805 131.972 37.6725 131.972C36.7365 131.972 35.9685 132.092 35.3685 132.332C34.7925 132.572 34.3605 132.908 34.0725 133.34C33.7845 133.772 33.6405 134.288 33.6405 134.888ZM33.2085 127.256L31.8045 125.132C32.4285 124.676 33.2805 124.22 34.3605 123.764C35.4645 123.308 36.7845 123.08 38.3205 123.08C39.6165 123.08 40.7445 123.284 41.7045 123.692C42.6885 124.076 43.4445 124.64 43.9725 125.384C44.5245 126.128 44.8005 127.04 44.8005 128.12V140H41.9205V128.516C41.9205 127.94 41.8245 127.472 41.6325 127.112C41.4405 126.728 41.1645 126.428 40.8045 126.212C40.4685 125.996 40.0725 125.84 39.6165 125.744C39.1605 125.648 38.6805 125.6 38.1765 125.6C37.3605 125.6 36.6165 125.696 35.9445 125.888C35.2965 126.08 34.7445 126.308 34.2885 126.572C33.8325 126.836 33.4725 127.064 33.2085 127.256ZM52.5566 123.44V140H49.6766V123.44H52.5566ZM57.5606 126.608C57.1766 126.32 56.8286 126.116 56.5166 125.996C56.2046 125.852 55.8086 125.78 55.3286 125.78C54.6086 125.78 54.0446 125.96 53.6366 126.32C53.2286 126.68 52.9406 127.172 52.7726 127.796C52.6286 128.42 52.5566 129.128 52.5566 129.92H51.2606C51.2606 128.6 51.4886 127.436 51.9446 126.428C52.4246 125.396 53.0366 124.58 53.7806 123.98C54.5246 123.38 55.2806 123.08 56.0486 123.08C56.6486 123.08 57.2006 123.164 57.7046 123.332C58.2326 123.476 58.7126 123.776 59.1446 124.232L57.5606 126.608ZM74.4364 111.92H77.3164V140H74.4364V111.92ZM60.5764 131.72C60.5764 129.92 60.9484 128.384 61.6924 127.112C62.4364 125.816 63.4324 124.82 64.6804 124.124C65.9284 123.428 67.2964 123.08 68.7844 123.08C70.1764 123.08 71.3884 123.428 72.4204 124.124C73.4524 124.82 74.2564 125.816 74.8324 127.112C75.4324 128.384 75.7324 129.92 75.7324 131.72C75.7324 133.496 75.4324 135.032 74.8324 136.328C74.2564 137.624 73.4524 138.62 72.4204 139.316C71.3884 140.012 70.1764 140.36 68.7844 140.36C67.2964 140.36 65.9284 140.012 64.6804 139.316C63.4324 138.62 62.4364 137.624 61.6924 136.328C60.9484 135.032 60.5764 133.496 60.5764 131.72ZM63.4924 131.72C63.4924 132.992 63.7444 134.072 64.2484 134.96C64.7764 135.848 65.4724 136.52 66.3364 136.976C67.2004 137.432 68.1364 137.66 69.1444 137.66C69.9844 137.66 70.8124 137.432 71.6284 136.976C72.4444 136.52 73.1164 135.848 73.6444 134.96C74.1724 134.072 74.4364 132.992 74.4364 131.72C74.4364 130.448 74.1724 129.368 73.6444 128.48C73.1164 127.592 72.4444 126.92 71.6284 126.464C70.8124 126.008 69.9844 125.78 69.1444 125.78C68.1364 125.78 67.2004 126.008 66.3364 126.464C65.4724 126.92 64.7764 127.592 64.2484 128.48C63.7444 129.368 63.4924 130.448 63.4924 131.72ZM82.5477 111.92H85.4277V140H82.5477V111.92ZM103.985 123.44L93.1845 147.92H89.9445L94.4805 137.66L88.1445 123.44H91.5645L96.8205 136.4L95.6325 136.256L100.745 123.44H103.985Z" fill="#D6A067"/>
</g>
<defs>
<filter id="filter0_i_835_3494" x="19.9982" y="14" width="72.0087" height="76.0005" filterUnits="userSpaceOnUse" color-interpolation-filters="sRGB">
<feFlood flood-opacity="0" result="BackgroundImageFix"/>
<feBlend mode="normal" in="SourceGraphic" in2="BackgroundImageFix" result="shape"/>
<feColorMatrix in="SourceAlpha" type="matrix" values="0 0 0 0 0 0 0 0 0 0 0 0 0 0 0 0 0 0 127 0" result="hardAlpha"/>
<feOffset dy="4"/>
<feGaussianBlur stdDeviation="2"/>
<feComposite in2="hardAlpha" operator="arithmetic" k2="-1" k3="1"/>
<feColorMatrix type="matrix" values="0 0 0 0 0 0 0 0 0 0 0 0 0 0 0 0 0 0 0.25 0"/>
<feBlend mode="normal" in2="shape" result="effect1_innerShadow_835_3494"/>
</filter>
<filter id="filter1_i_835_3494" x="6.44" y="111.92" width="97.5446" height="40" filterUnits="userSpaceOnUse" color-interpolation-filters="sRGB">
<feFlood flood-opacity="0" result="BackgroundImageFix"/>
<feBlend mode="normal" in="SourceGraphic" in2="BackgroundImageFix" result="shape"/>
<feColorMatrix in="SourceAlpha" type="matrix" values="0 0 0 0 0 0 0 0 0 0 0 0 0 0 0 0 0 0 127 0" result="hardAlpha"/>
<feOffset dy="4"/>
<feGaussianBlur stdDeviation="2"/>
<feComposite in2="hardAlpha" operator="arithmetic" k2="-1" k3="1"/>
<feColorMatrix type="matrix" values="0 0 0 0 0 0 0 0 0 0 0 0 0 0 0 0 0 0 0.25 0"/>
<feBlend mode="normal" in2="shape" result="effect1_innerShadow_835_3494"/>
</filter>
</defs>
</svg>
